<?xml version="1.0" standalone="no"?>
<!DOCTYPE svg PUBLIC "-//W3C//DTD SVG 20010904//EN"
 "http://www.w3.org/TR/2001/REC-SVG-20010904/DTD/svg10.dtd">
<svg version="1.0" xmlns="http://www.w3.org/2000/svg"
 width="976.000000pt" height="976.000000pt" viewBox="0 0 976.000000 976.000000"
 preserveAspectRatio="xMidYMid meet">
<metadata>
Created by potrace 1.14, written by Peter Selinger 2001-2017
</metadata>
<g transform="translate(0.000000,976.000000) scale(0.100000,-0.100000)"
fill="#000000" stroke="none">
<path d="M2978 8075 c-2 -2 -35 -6 -73 -10 -107 -10 -138 -13 -160 -18 -11 -3
-42 -8 -70 -11 -42 -6 -181 -35 -247 -52 -45 -11 -59 -14 -79 -19 -12 -2 -38
-10 -58 -17 -20 -7 -38 -13 -41 -13 -40 -7 -317 -112 -375 -143 -16 -9 -32
-17 -35 -17 -16 -4 -129 -61 -152 -77 -16 -11 -28 -17 -28 -14 0 16 -382 -238
-465 -310 -16 -14 -55 -46 -85 -72 -99 -83 -313 -305 -398 -412 -45 -58 -89
-112 -97 -121 -8 -9 -15 -21 -15 -27 0 -5 -3 -12 -7 -14 -11 -4 -65 -78 -58
-78 3 0 -3 -10 -15 -22 -11 -12 -20 -28 -20 -35 0 -7 -3 -13 -8 -13 -4 0 -19
-21 -32 -47 -14 -27 -27 -50 -30 -53 -15 -14 -104 -191 -160 -315 -33 -74 -73
-174 -76 -185 0 -3 -4 -13 -7 -22 -10 -27 -18 -53 -18 -56 1 -1 -5 -18 -13
-37 -8 -19 -13 -35 -11 -35 2 0 -2 -15 -10 -34 -8 -18 -17 -47 -20 -62 -3 -16
-12 -54 -20 -84 -9 -30 -18 -66 -20 -80 -2 -14 -7 -36 -10 -50 -3 -14 -7 -36
-10 -50 -3 -14 -7 -35 -9 -47 -3 -11 -7 -43 -11 -70 -4 -26 -8 -59 -11 -72
-13 -86 -19 -214 -18 -406 1 -176 8 -370 14 -370 1 0 3 -16 6 -35 2 -19 9 -62
15 -95 6 -33 12 -71 14 -85 16 -109 107 -442 127 -465 4 -5 8 -19 8 -31 0 -13
5 -26 10 -29 6 -3 10 -13 10 -21 0 -8 9 -33 19 -57 10 -23 34 -76 52 -117 29
-66 68 -144 135 -270 11 -19 22 -37 25 -40 3 -3 12 -16 19 -30 42 -82 209
-315 311 -433 160 -187 492 -484 609 -547 14 -7 30 -18 37 -24 30 -27 43 -36
48 -36 4 0 26 -13 50 -30 24 -16 46 -30 48 -30 3 0 38 -19 79 -43 123 -73 476
-231 537 -240 9 -1 21 -6 27 -9 6 -4 28 -12 50 -17 21 -5 82 -21 134 -35 85
-23 135 -35 180 -41 8 -1 26 -5 40 -8 32 -8 73 -15 130 -22 25 -3 54 -8 66
-10 92 -20 550 -27 689 -12 144 16 161 18 215 28 62 10 94 16 130 24 14 3 40
8 59 10 19 3 40 10 46 15 7 5 14 7 17 5 3 -3 17 -1 32 5 15 5 41 12 58 15 17
3 46 12 64 20 19 8 34 12 34 9 0 -2 13 2 30 11 16 8 31 15 32 14 4 -3 78 20
103 31 25 12 78 33 85 34 20 4 321 145 330 155 3 4 19 13 35 21 17 8 42 22 56
32 28 18 40 15 134 -42 143 -87 554 -254 697 -284 13 -3 48 -12 78 -21 30 -8
66 -17 80 -20 14 -3 36 -7 50 -10 14 -3 41 -8 60 -11 19 -4 44 -8 55 -10 11
-2 40 -6 65 -9 25 -3 54 -8 65 -10 98 -19 535 -27 685 -12 123 12 205 23 205
27 0 1 14 3 30 5 50 5 119 16 126 20 3 2 21 7 40 10 19 4 39 8 44 9 6 1 16 5
23 9 6 5 12 6 12 3 0 -3 24 2 53 11 28 8 57 16 62 18 8 1 74 20 105 30 3 1 12
5 20 8 8 4 38 13 65 22 28 9 59 20 70 25 11 5 54 23 95 41 41 17 89 37 105 44
17 7 35 14 40 15 6 1 15 6 21 11 6 5 42 25 80 45 105 54 173 94 236 136 31 21
59 38 62 38 3 0 14 6 23 14 10 8 57 43 104 79 48 35 93 69 100 76 8 6 32 26
53 43 101 85 366 347 366 362 0 4 53 67 83 98 9 10 17 22 17 27 0 5 7 15 16
22 9 8 26 28 38 45 82 123 122 180 131 186 5 4 7 8 3 8 -4 0 9 24 28 52 19 29
34 58 34 64 0 7 4 14 9 16 10 3 117 215 151 298 12 30 28 69 35 85 36 87 58
153 95 275 22 74 42 146 44 160 3 14 5 25 6 25 1 0 3 9 5 20 2 11 6 31 9 45 3
14 9 41 12 60 4 19 8 44 10 55 2 11 7 40 10 65 3 25 8 54 11 65 14 66 32 399
21 410 -2 3 -69 5 -149 4 -79 0 -157 1 -174 1 -16 1 -34 2 -40 2 -18 -1 -169
-1 -220 -1 -27 0 -83 -1 -123 -1 -41 -1 -76 0 -78 3 -3 3 -21 1 -40 -3 -20 -5
-34 -4 -34 2 0 5 -5 6 -10 3 -6 -4 -75 -6 -153 -5 -78 1 -146 2 -152 2 -29 -1
-132 -1 -145 -1 -8 0 -51 0 -95 0 -44 0 -102 0 -130 0 -27 0 -83 -1 -123 -1
-41 -1 -76 0 -78 3 -3 3 -21 1 -40 -3 -20 -5 -34 -4 -34 2 0 5 -5 6 -10 3 -6
-4 -75 -6 -153 -5 -78 1 -146 2 -152 2 -29 -1 -132 -1 -145 -1 -8 0 -51 0 -95
0 -44 0 -102 0 -130 0 -27 0 -83 -1 -123 -1 -41 -1 -76 0 -78 3 -3 3 -21 1
-40 -3 -20 -5 -34 -4 -34 2 0 5 -4 7 -8 4 -12 -7 -87 -9 -397 -7 -90 1 -112 3
-113 14 0 7 -3 66 -7 132 -5 119 -7 146 -20 258 -6 55 -8 67 -20 120 -3 12 -7
40 -10 62 -2 22 -14 78 -25 125 -11 47 -23 100 -27 118 -3 18 -10 35 -14 38
-5 3 -9 13 -9 23 0 21 -36 138 -50 163 -6 10 -10 27 -10 37 0 11 -4 23 -10 26
-5 3 -10 13 -10 20 0 8 -11 38 -24 67 -13 29 -36 82 -52 118 -35 81 -120 246
-145 282 -11 14 -19 29 -19 33 0 9 -147 231 -165 249 -8 8 -15 17 -15 21 0 4
-28 41 -62 83 -35 42 -70 86 -78 96 -38 48 -271 281 -328 328 -35 29 -78 66
-95 81 -18 16 -44 36 -59 45 -16 9 -28 20 -28 24 0 4 -6 8 -14 8 -8 0 -16 4
-18 8 -3 10 -133 102 -143 102 -4 0 -13 6 -20 13 -32 28 -43 35 -63 41 -12 4
-28 13 -35 19 -35 32 -310 168 -458 226 -115 45 -255 91 -278 91 -11 0 -22 4
-25 9 -3 4 -25 12 -48 16 -24 4 -47 9 -53 11 -42 12 -105 26 -210 44 -27 5
-61 12 -75 14 -13 3 -52 8 -86 12 -33 3 -74 8 -90 10 -33 6 -521 14 -526 9z"/>
</g>
</svg>
